<svg xmlns="http://www.w3.org/2000/svg" viewBox="0 0 40 40" fill="none">
  <rect width="40" height="40" rx="10" fill="url(#g)"/>
  <path d="M20 8C13.4 8 8 13.4 8 20s5.4 12 12 12 12-5.4 12-12S26.6 8 20 8zm0 4c1.7 0 3 1.3 3 3s-1.3 3-3 3-3-1.3-3-3 1.3-3 3-3zm0 17c-3 0-5.7-1.5-7.3-3.9.1-2.4 4.9-3.7 7.3-3.7s7.2 1.3 7.3 3.7C25.7 27.5 23 29 20 29z" fill="white" opacity="0.95"/>
  <defs>
    <linearGradient id="g" x1="0" y1="0" x2="40" y2="40" gradientUnits="userSpaceOnUse">
      <stop offset="0%" stop-color="#6c63ff"/>
      <stop offset="100%" stop-color="#a78bfa"/>
    </linearGradient>
  </defs>
</svg>
